<?xml version='1.0' encoding='utf-8'?>
<mlt title="Anonymous Submission" version="6.7.0" root="/home/aldorian/Desktop/Videos" producer="main bin" LC_NUMERIC="es_UY.UTF-8">
 <profile width="1920" frame_rate_den="1" height="1080" display_aspect_num="16" display_aspect_den="9" frame_rate_num="25" colorspace="709" sample_aspect_den="1" description="HD 1080p 25 fps" progressive="1" sample_aspect_num="1"/>
 <producer id="3" title="Anonymous Submission" out="124" in="0">
  <property name="length">125</property>
  <property name="eof">pause</property>
  <property name="resource"/>
  <property name="progressive">1</property>
  <property name="aspect_ratio">1</property>
  <property name="seekable">1</property>
  <property name="mlt_service">kdenlivetitle</property>
  <property name="kdenlive:clipname">Tap</property>
  <property name="kdenlive:folderid">-1</property>
  <property name="xmldata">&lt;kdenlivetitle width="1920" duration="125" out="125" height="1080" LC_NUMERIC="es_UY.UTF-8">
 &lt;item z-index="0" type="QGraphicsPixmapItem">
  &lt;position x="659" y="239">
   &lt;transform zoom="100">1,0,0,0,1,0,0,0,1&lt;/transform>
  &lt;/position>
  &lt;content url="/home/aldorian/Desktop/circle.png"/>
 &lt;/item>
 &lt;startviewport rect="0,0,1920,1080"/>
 &lt;endviewport rect="0,0,1920,1080"/>
 &lt;background color="0,0,0,0"/>
&lt;/kdenlivetitle>
</property>
  <property name="kdenlive:duration">125</property>
  <property name="force_reload">0</property>
  <property name="meta.media.width">1920</property>
  <property name="meta.media.height">1080</property>
  <property name="kdenlive:file_hash">6551c95c53de681716fb84d2b633dadb</property>
  <property name="global_feed">1</property>
 </producer>
 <producer id="4" title="Anonymous Submission" out="124" in="0">
  <property name="length">125</property>
  <property name="eof">pause</property>
  <property name="resource"/>
  <property name="progressive">1</property>
  <property name="aspect_ratio">1</property>
  <property name="seekable">1</property>
  <property name="mlt_service">kdenlivetitle</property>
  <property name="kdenlive:clipname">Swipe</property>
  <property name="kdenlive:folderid">-1</property>
  <property name="xmldata">&lt;kdenlivetitle width="1920" duration="0" out="0" height="1080" LC_NUMERIC="es_UY.UTF-8">
 &lt;item z-index="0" type="QGraphicsPixmapItem">
  &lt;position x="654" y="211">
   &lt;transform>1,0,0,0,1,0,0,0,1&lt;/transform>
  &lt;/position>
  &lt;content url="/home/aldorian/Desktop/circle.png"/>
 &lt;/item>
 &lt;startviewport rect="1.68183,-2.62322,1920,1080"/>
 &lt;endviewport rect="685.64,2.95729,1920,1080"/>
 &lt;background color="0,0,0,0"/>
&lt;/kdenlivetitle>
</property>
  <property name="kdenlive:duration">125</property>
  <property name="force_reload">0</property>
  <property name="kdenlive:file_hash">29cad55ee27120f428bd73fc04d9f348</property>
  <property name="global_feed">1</property>
  <property name="meta.media.width">1920</property>
  <property name="meta.media.height">1080</property>
 </producer>
 <producer id="10" title="Anonymous Submission" out="1177" in="0">
  <property name="length">1178</property>
  <property name="eof">pause</property>
  <property name="resource">/home/aldorian/Desktop/Set credentials.mov</property>
  <property name="audio_index">0</property>
  <property name="video_index">1</property>
  <property name="mute_on_pause">1</property>
  <property name="mlt_service">avformat-novalidate</property>
  <property name="meta.media.nb_streams">2</property>
  <property name="meta.media.0.stream.type">audio</property>
  <property name="meta.media.0.codec.sample_fmt">fltp</property>
  <property name="meta.media.0.codec.sample_rate">48000</property>
  <property name="meta.media.0.codec.channels">2</property>
  <property name="meta.media.0.codec.name">aac</property>
  <property name="meta.media.0.codec.long_name">AAC (Advanced Audio Coding)</property>
  <property name="meta.media.0.codec.bit_rate">7628</property>
  <property name="meta.attr.0.stream.creation_time.markup">2018-08-27T17:38:30.000000Z</property>
  <property name="meta.attr.0.stream.handler_name.markup">Core Media Data Handler</property>
  <property name="meta.media.1.stream.type">video</property>
  <property name="meta.media.1.stream.frame_rate">53,9146</property>
  <property name="meta.media.1.stream.sample_aspect_ratio">1</property>
  <property name="meta.media.1.codec.width">404</property>
  <property name="meta.media.1.codec.height">720</property>
  <property name="meta.media.1.codec.rotate">0</property>
  <property name="meta.media.1.codec.frame_rate">60000</property>
  <property name="meta.media.1.codec.pix_fmt">yuvj420p</property>
  <property name="meta.media.1.codec.sample_aspect_ratio">1</property>
  <property name="meta.media.1.codec.colorspace">709</property>
  <property name="meta.media.1.codec.color_trc">1</property>
  <property name="meta.media.1.codec.name">h264</property>
  <property name="meta.media.1.codec.long_name">H.264 / AVC / MPEG-4 AVC / MPEG-4 part 10</property>
  <property name="meta.media.1.codec.bit_rate">1549458</property>
  <property name="meta.attr.1.stream.creation_time.markup">2018-08-27T17:38:30.000000Z</property>
  <property name="meta.attr.1.stream.handler_name.markup">Core Media Data Handler</property>
  <property name="meta.attr.1.stream.encoder.markup">H.264</property>
  <property name="meta.attr.major_brand.markup">qt  </property>
  <property name="meta.attr.minor_version.markup">0</property>
  <property name="meta.attr.compatible_brands.markup">qt  </property>
  <property name="meta.attr.creation_time.markup">2018-08-27T17:38:30.000000Z</property>
  <property name="meta.attr.com.apple.quicktime.make.markup">Apple</property>
  <property name="meta.attr.com.apple.quicktime.model.markup">Macmini5,2</property>
  <property name="meta.attr.com.apple.quicktime.software.markup">Mac OS X 10.13.6 (17G65)</property>
  <property name="meta.attr.com.apple.quicktime.creationdate.markup">2018-08-27T14:36:45-0300</property>
  <property name="seekable">1</property>
  <property name="meta.media.sample_aspect_num">1</property>
  <property name="meta.media.sample_aspect_den">1</property>
  <property name="aspect_ratio">1</property>
  <property name="kdenlive:folderid">-1</property>
  <property name="meta.media.frame_rate_num">152400000</property>
  <property name="meta.media.frame_rate_den">2826691</property>
  <property name="meta.media.colorspace">709</property>
  <property name="meta.media.color_trc">1</property>
  <property name="meta.media.width">404</property>
  <property name="meta.media.height">720</property>
  <property name="meta.media.top_field_first">0</property>
  <property name="meta.media.progressive">1</property>
  <property name="kdenlive:file_size">9220122</property>
  <property name="kdenlive:file_hash">de36763e6dc7a9bb476866a08a157a20</property>
  <property name="global_feed">1</property>
  <property name="kdenlive:clipanalysis.motion_vector_list">776=508/458:960x540:0;777=508/458:960x540;778=507,995/457,999:960x540;779=507,996/457,998:960x540;780=507,997/457,998:960x540;781=507,998/457,997:960x540;782=508/457,997:960x540;783=508,002/457,997:960x540;784=508,004/457,997:960x540;785=508,007/457,996:960x540;786=508,008/457,996:960x540;787=508,009/457,996:960x540;788=508,011/457,996:960x540;789=508,014/458,006:960x540;790=508,015/458,005:960x540;791=508,015/458,001:960x540;792=508,012/458,002:960x540;793=508,012/458,003:960x540;794=508,011/458,004:960x540;795=508,01/458,005:960x540;796=508,009/458,006:960x540;797=508,008/458,007:960x540;798=508,007/458,008:960x540;799=508,006/458,009:960x540;800=508,005/458,01:960x540;801=508,004/458,011:960x540;802=508,003/458,012:960x540;803=508/458,013:960x540;804=507,998/458,014:960x540;805=507,995/458,015:960x540;806=508,031/458,018:960x540;807=508,03/458,022:960x540;808=508,025/458,032:960x540;809=508,023/458,033:960x540;810=508,022/458,035:960x540;811=508,021/458,037:960x540;812=508,02/458,039:960x540;813=508,019/458,042:960x540;814=508,018/458,044:960x540;815=508,017/458,046:960x540;816=508,016/458,048:960x540;817=508,015/458,05:960x540;818=508,014/458,051:960x540;819=508,013/458,053:960x540;820=508,013/458,059:960x540;821=508,014/458,063:960x540;822=508,011/458,066:960x540;823=508,01/458,065:960x540;824=508,008/458,065:960x540;825=508,113/462,512:960x540;826=511,113/470,512:960x540;827=511,013/473,287:960x540;828=511,763/484,537:960x540;829=511,763/495,537:960x540;830=511,763/500,537:960x540;831=511,59/504,342:960x540;832=511,416/508,146:960x540;833=511,242/511,95:960x540;834=511,072/515,738:960x540;835=510,929/518,944:960x540;836=510,929/521,758:960x540;837=510,93/521,824:960x540;838=510,931/521,891:960x540;839=510,932/521,957:960x540;840=510,933/522,024:960x540;841=510,934/522,091:960x540;842=510,935/522,157:960x540;843=510,936/522,224:960x540;844=510,937/522,29:960x540;845=510,939/522,357:960x540;846=510,94/522,423:960x540;847=510,937/522,492:960x540;848=510,936/522,545:960x540;849=510,936/522,563:960x540;850=510,936/526,096:960x540;851=510,936/529,721:960x540;852=510,936/533,346:960x540;853=510,936/536,971:960x540;854=510,935/536,993:960x540;855=510,935/536,985:960x540;856=510,932/536,981:960x540;857=510,93/536,976:960x540;858=510,926/536,972:960x540;859=510,924/536,97:960x540;860=510,921/536,97:960x540;861=510,918/536,97:960x540;862=510,913/536,968:960x540;863=510,908/536,967:960x540;864=510,901/536,953:960x540;865=510,894/536,944:960x540;866=510,89/536,935:960x540;867=510,887/536,926:960x540;868=510,884/536,917:960x540;869=510,881/536,908:960x540;870=510,878/536,899:960x540;871=510,874/536,89:960x540;872=510,871/536,881:960x540;873=510,868/536,872:960x540;874=510,865/536,863:960x540;875=510,86/536,852:960x540;876=510,856/536,841:960x540;877=510,851/536,829:960x540;878=510,849/536,826:960x540;879=510,846/536,822:960x540;880=510,843/536,819:960x540;881=510,841/536,816:960x540;882=510,838/536,813:960x540;883=510,835/536,81:960x540;884=510,833/536,807:960x540;885=510,83/536,803:960x540;886=510,828/536,8:960x540;887=510,825/536,797:960x540;888=510,823/536,793:960x540;889=510,822/536,789:960x540;890=510,82/536,784:960x540;891=510,82/536,78:960x540;892=510,819/536,776:960x540;893=510,819/536,772:960x540;894=510,818/536,768:960x540;895=510,818/536,763:960x540;896=510,817/536,759:960x540;897=510,817/536,755:960x540;898=510,816/536,751:960x540;899=510,816/536,747:960x540;900=510,815/536,742:960x540;901=510,815/536,738:960x540;902=510,814/536,734:960x540;903=510,813/536,73:960x540;904=510,813/536,725:960x540;905=510,812/536,721:960x540;906=510,812/536,717:960x540;907=510,811/536,713:960x540;908=510,811/536,709:960x540;909=510,81/536,704:960x540;910=510,809/536,7:960x540;911=510,808/536,696:960x540;912=510,807/536,692:960x540;913=510,806/536,69:960x540;914=510,806/536,69:960x540;915=510,806/536,689:960x540;916=510,806/536,688:960x540;917=510,807/536,687:960x540;918=510,807/536,686:960x540;919=510,808/536,685:960x540;920=510,808/536,684:960x540;921=510,809/536,683:960x540;922=510,809/536,682:960x540;923=510,81/536,681:960x540;924=510,81/536,68:960x540;925=510,811/536,679:960x540;926=510,812/536,678:960x540;927=510,813/536,676:960x540;928=510,814/536,675:960x540;929=510,814/536,674:960x540;930=510,814/536,672:960x540;931=510,814/536,67:960x540;932=510,814/536,669:960x540;933=510,814/536,667:960x540;934=510,814/536,666:960x540;935=510,814/536,664:960x540;936=510,814/536,662:960x540;937=510,814/536,661:960x540;938=510,814/536,659:960x540;939=510,815/536,658:960x540;940=510,815/536,657:960x540;941=510,816/536,656:960x540;942=510,816/536,655:960x540;943=510,817/536,654:960x540;944=510,817/536,653:960x540;945=510,818/536,652:960x540;946=510,818/536,651:960x540;947=510,819/536,65:960x540;948=510,819/536,649:960x540;949=510,82/536,648:960x540;950=510,82/536,647:960x540;951=510,82/536,646:960x540;952=510,82/536,644:960x540;953=510,82/536,643:960x540;954=510,82/536,643:960x540;955=510,82/536,642:960x540;956=510,82/536,641:960x540;957=510,82/536,641:960x540;958=510,82/536,64:960x540;959=510,82/536,64:960x540;960=510,82/536,639:960x540;961=510,82/536,639:960x540;962=510,82/536,638:960x540;963=510,82/536,638:960x540;964=510,82/536,638:960x540;965=510,82/536,638:960x540;966=510,82/536,638:960x540;967=510,82/536,638:960x540;968=510,82/536,638:960x540;969=510,82/536,638:960x540;970=510,82/536,638:960x540;971=510,82/536,638:960x540;972=510,82/536,638:960x540;973=510,82/536,638:960x540;974=510,82/536,638:960x540;975=510,82/536,638:960x540;976=510,82/536,638:960x540;977=510,82/536,637:960x540;978=510,82/536,637:960x540;979=510,821/536,637:960x540;980=510,821/536,636:960x540;981=510,822/536,635:960x540;982=510,822/536,635:960x540;983=510,823/536,634:960x540;984=510,823/536,634:960x540;985=510,824/536,633:960x540;986=510,824/536,633:960x540;987=510,825/536,632:960x540;988=510,826/536,632:960x540;989=510,826/536,632:960x540;990=510,827/536,632:960x540;991=510,827/536,632:960x540;992=510,827/536,632:960x540;993=510,827/536,632:960x540;994=510,827/536,632:960x540;995=510,827/536,632:960x540;996=510,827/536,632:960x540;997=510,827/536,632:960x540;998=510,827/536,632:960x540;999=510,827/536,632:960x540;1000=510,827/536,632:960x540;1001=510,827/536,632:960x540;1002=510,827/536,631:960x540;1003=510,827/536,631:960x540;1004=510,827/536,63:960x540;1005=510,827/536,63:960x540;1006=510,827/536,629:960x540;1007=510,827/536,629:960x540;1008=510,827/536,628:960x540;1009=510,827/536,628:960x540;1010=510,827/536,627:960x540;1011=510,827/536,627:960x540;1012=510,827/536,626:960x540;1013=510,827/536,626:960x540;1014=510,827/536,625:960x540;1015=510,827/536,624:960x540;1016=510,827/536,624:960x540;1017=510,827/536,623:960x540;1018=510,827/536,623:960x540;1019=510,827/536,622:960x540;1020=510,827/536,622:960x540;1021=510,827/536,621:960x540;1022=510,827/536,621:960x540;1023=510,827/536,62:960x540;1024=510,827/536,62:960x540;1025=510,827/536,619:960x540;1026=510,827/536,618:960x540;1027=510,827/536,618:960x540;1028=510,827/536,618:960x540;1029=510,827/536,618:960x540;1030=510,827/536,618:960x540;1031=510,827/536,618:960x540;1032=510,827/536,618:960x540;1033=510,827/536,618:960x540;1034=510,827/536,618:960x540;1035=510,827/536,618:960x540;1036=510,827/536,618:960x540;1037=510,827/536,618:960x540;1038=510,827/536,618:960x540;1039=510,827/536,618:960x540;1040=510,826/536,617:960x540;1041=510,825/536,617:960x540;1042=510,824/536,616:960x540;1043=510,823/536,615:960x540;1044=510,821/536,613:960x540;1045=510,82/536,612:960x540;1046=510,819/536,611:960x540;1047=510,818/536,61:960x540;1048=510,817/536,609:960x540;1049=510,816/536,608:960x540;1050=510,815/536,607:960x540;1051=510,814/536,606:960x540;1052=510,813/536,605:960x540;1053=510,811/536,603:960x540;1054=510,811/536,602:960x540;1055=510,811/536,602:960x540;1056=510,811/536,601:960x540;1057=510,811/536,601:960x540;1058=510,811/536,6:960x540;1059=510,811/536,6:960x540;1060=510,811/536,599:960x540;1061=510,811/536,599:960x540;1062=510,811/536,598:960x540;1063=510,811/536,598:960x540;1064=510,811/536,597:960x540;1065=510,811/536,596:960x540;1066=510,811/536,595:960x540;1067=510,811/536,595:960x540;1068=510,811/536,594:960x540;1069=510,811/536,594:960x540;1070=510,811/536,593:960x540;1071=510,811/536,593:960x540;1072=510,811/536,592:960x540;1073=510,811/536,591:960x540;1074=510,811/536,591:960x540;1075=510,811/536,59:960x540;1076=510,811/536,59:960x540;1077=510,811/536,589:960x540;1078=510,811/536,589:960x540;1079=510,811/536,589:960x540;1080=510,811/536,589:960x540;1081=510,811/536,589:960x540;1082=510,811/536,589:960x540;1083=510,811/536,589:960x540;1084=510,811/536,589:960x540;1085=510,811/536,589:960x540;1086=510,811/536,589:960x540;1087=510,811/536,589:960x540;1088=510,811/536,589:960x540;1089=510,811/536,589:960x540;1090=510,811/536,589:960x540;1091=510,811/536,589:960x540;1092=510,811/536,588:960x540;1093=510,811/536,588:960x540;1094=510,811/536,587:960x540;1095=510,811/536,587:960x540;1096=510,811/536,586:960x540;1097=510,867/536,574:960x540;1098=513,683/536,681:960x540;1099=518,243/536,561:960x540;1100=524,576/536,784:960x540;1101=532,409/536,95:960x540;1102=537,543/536,95:960x540;1103=541,622/536,959:960x540;1104=544,874/536,95:960x540;1105=547,422/536,931:960x540;1106=549,272/536,894:960x540;1107=551,036/536,859:960x540;1108=551,52/536,795:960x540;1109=551,911/536,774:960x540;1110=552,282/536,71:960x540;1111=552,529/536,669:960x540;1112=552,755/536,629:960x540;1113=552,983/536,589:960x540;1114=553,21/536,549:960x540;1115=553,438/536,505:960x540;1116=553,648/536,463:960x540;1117=553,858/536,421:960x540;1118=554,068/536,38:960x540;1119=554,278/536,338:960x540;1120=554,489/536,296:960x540;1121=554,699/536,254:960x540;1122=554,912/536,202:960x540;1123=555,095/536,154:960x540;1124=555,257/536,106:960x540;1125=555,419/536,058:960x540;1126=555,581/536,01:960x540;1127=555,743/535,962:960x540;1128=555,905/535,914:960x540;1129=556,068/535,867:960x540;1130=556,229/535,819:960x540;1131=556,391/535,771:960x540;1132=556,553/535,723:960x540;1133=556,715/535,675:960x540;1134=556,876/535,627:960x540;1135=557,038/535,58:960x540;1136=557,2/535,532:960x540;1137=557,362/535,484:960x540;1138=557,524/535,436:960x540;1139=557,686/535,388:960x540;1140=557,847/535,34:960x540;1141=558,009/535,292:960x540;1142=558,171/535,245:960x540;1143=558,333/535,197:960x540;1144=558,495/535,149:960x540;1145=558,657/535,101:960x540;1146=558,819/535,053:960x540;1147=558,981/535,005:960x540;1148=559,054/534,965:960x540;1149=559,121/534,927:960x540;1150=559,187/534,888:960x540;1151=559,254/534,849:960x540;1152=559,321/534,81:960x540;1153=559,388/534,772:960x540;1154=559,454/534,733:960x540;1155=559,521/534,694:960x540;1156=559,588/534,656:960x540;1157=559,654/534,617:960x540;1158=559,721/534,578:960x540;1159=559,788/534,54:960x540;1160=559,855/534,501:960x540;1161=559,922/534,462:960x540;1162=559,989/534,423:960x540;1163=560,055/534,385:960x540;1164=560,118/534,346:960x540;1165=560,18/534,306:960x540;1166=560,239/534,28:960x540;1167=560,297/534,253:960x540;1168=560,355/534,227:960x540;1169=560,414/534,2:960x540;1170=560,472/534,174:960x540;1171=560,53/534,147:960x540;1172=560,589/534,121:960x540;1173=560,648/534,095:960x540;1174=560,708/534,069:960x540;1175=560,766/534,044:960x540;1176=560,825/534,019:960x540;1177=560,883/533,994:960x540</property>
 </producer>
 <playlist id="main bin">
  <property name="kdenlive:docproperties.audiotargettrack">2</property>
  <property name="kdenlive:docproperties.decimalPoint">,</property>
  <property name="kdenlive:docproperties.dirtypreviewchunks"/>
  <property name="kdenlive:docproperties.disablepreview">0</property>
  <property name="kdenlive:docproperties.documentid">1533218968379</property>
  <property name="kdenlive:docproperties.enableproxy">0</property>
  <property name="kdenlive:docproperties.generateimageproxy">0</property>
  <property name="kdenlive:docproperties.generateproxy">0</property>
  <property name="kdenlive:docproperties.kdenliveversion">18.04.1</property>
  <property name="kdenlive:docproperties.position">1017</property>
  <property name="kdenlive:docproperties.previewchunks"/>
  <property name="kdenlive:docproperties.previewextension"/>
  <property name="kdenlive:docproperties.previewparameters"/>
  <property name="kdenlive:docproperties.profile">atsc_1080p_25</property>
  <property name="kdenlive:docproperties.proxyextension">mkv</property>
  <property name="kdenlive:docproperties.proxyimageminsize">2000</property>
  <property name="kdenlive:docproperties.proxyminsize">1000</property>
  <property name="kdenlive:docproperties.proxyparams">-vf yadif,scale=960:-2 -qscale 3 -vcodec mjpeg -acodec pcm_s16le</property>
  <property name="kdenlive:docproperties.version">0.96</property>
  <property name="kdenlive:docproperties.verticalzoom">1</property>
  <property name="kdenlive:docproperties.videotargettrack">3</property>
  <property name="kdenlive:docproperties.zonein">0</property>
  <property name="kdenlive:docproperties.zoneout">100</property>
  <property name="kdenlive:docproperties.zoom">5</property>
  <property name="kdenlive:documentnotes"/>
  <property name="kdenlive:clipgroups">&lt;groups>
 &lt;group>
  &lt;clipitem position="686" track="5"/>
  &lt;clipitem position="852" track="5"/>
  &lt;clipitem position="805" track="4"/>
  &lt;clipitem position="663" track="4"/>
 &lt;/group>
&lt;/groups>
</property>
  <property name="kdenlive:docproperties.renderaudioquality">160</property>
  <property name="kdenlive:docproperties.rendercategory">Generic (HD for web, mobile devices...)</property>
  <property name="kdenlive:docproperties.renderendguide">-1</property>
  <property name="kdenlive:docproperties.renderexportaudio">0</property>
  <property name="kdenlive:docproperties.renderguide">0</property>
  <property name="kdenlive:docproperties.renderplay">0</property>
  <property name="kdenlive:docproperties.renderprofile">MP4 - the dominating format (H264/AAC)</property>
  <property name="kdenlive:docproperties.renderquality">23</property>
  <property name="kdenlive:docproperties.renderratio">1</property>
  <property name="kdenlive:docproperties.renderrescale">0</property>
  <property name="kdenlive:docproperties.renderrescaleheight">180</property>
  <property name="kdenlive:docproperties.renderrescalewidth">320</property>
  <property name="kdenlive:docproperties.renderscanning">0</property>
  <property name="kdenlive:docproperties.renderspeed">2</property>
  <property name="kdenlive:docproperties.renderstartguide">-1</property>
  <property name="kdenlive:docproperties.rendertcoverlay">0</property>
  <property name="kdenlive:docproperties.rendertctype">0</property>
  <property name="kdenlive:docproperties.rendertwopass">0</property>
  <property name="kdenlive:docproperties.renderurl">set_credentials.mp4</property>
  <property name="kdenlive:docproperties.renderzone">0</property>
  <property name="xml_retain">1</property>
  <entry out="124" producer="3" in="0"/>
  <entry out="124" producer="4" in="0"/>
  <entry out="1177" producer="10" in="0"/>
 </playlist>
 <producer id="black" out="500" in="0">
  <property name="length">15000</property>
  <property name="eof">pause</property>
  <property name="resource">black</property>
  <property name="aspect_ratio">0</property>
  <property name="mlt_service">colour</property>
  <property name="set.test_audio">0</property>
 </producer>
 <playlist id="black_track">
  <entry out="1676" producer="black" in="0"/>
 </playlist>
 <playlist id="playlist1">
  <property name="kdenlive:track_name">Audio 2</property>
  <property name="kdenlive:audio_track">1</property>
 </playlist>
 <playlist id="playlist2">
  <property name="kdenlive:track_name">Audio 1</property>
  <property name="kdenlive:audio_track">1</property>
 </playlist>
 <playlist id="playlist3">
  <property name="kdenlive:track_name">Video 1</property>
 </playlist>
 <producer id="10_playlist4" title="Anonymous Submission" out="1177" in="0">
  <property name="length">1178</property>
  <property name="eof">pause</property>
  <property name="resource">/home/aldorian/Desktop/Set credentials.mov</property>
  <property name="audio_index">0</property>
  <property name="video_index">1</property>
  <property name="mute_on_pause">1</property>
  <property name="mlt_service">avformat-novalidate</property>
  <property name="seekable">1</property>
  <property name="aspect_ratio">1</property>
  <property name="kdenlive:folderid">-1</property>
  <property name="kdenlive:file_size">9220122</property>
  <property name="kdenlive:file_hash">de36763e6dc7a9bb476866a08a157a20</property>
  <property name="global_feed">1</property>
  <property name="xml">was here</property>
  <property name="meta.media.nb_streams">2</property>
  <property name="meta.media.0.stream.type">audio</property>
  <property name="meta.media.0.codec.sample_fmt">fltp</property>
  <property name="meta.media.0.codec.sample_rate">48000</property>
  <property name="meta.media.0.codec.channels">2</property>
  <property name="meta.media.0.codec.name">aac</property>
  <property name="meta.media.0.codec.long_name">AAC (Advanced Audio Coding)</property>
  <property name="meta.media.0.codec.bit_rate">7628</property>
  <property name="meta.attr.0.stream.creation_time.markup">2018-08-27T17:38:30.000000Z</property>
  <property name="meta.attr.0.stream.handler_name.markup">Core Media Data Handler</property>
  <property name="meta.media.1.stream.type">video</property>
  <property name="meta.media.1.stream.frame_rate">53,9146</property>
  <property name="meta.media.1.stream.sample_aspect_ratio">1</property>
  <property name="meta.media.1.codec.width">404</property>
  <property name="meta.media.1.codec.height">720</property>
  <property name="meta.media.1.codec.rotate">0</property>
  <property name="meta.media.1.codec.frame_rate">60000</property>
  <property name="meta.media.1.codec.pix_fmt">yuvj420p</property>
  <property name="meta.media.1.codec.sample_aspect_ratio">1</property>
  <property name="meta.media.1.codec.colorspace">709</property>
  <property name="meta.media.1.codec.color_trc">1</property>
  <property name="meta.media.1.codec.name">h264</property>
  <property name="meta.media.1.codec.long_name">H.264 / AVC / MPEG-4 AVC / MPEG-4 part 10</property>
  <property name="meta.media.1.codec.bit_rate">1549458</property>
  <property name="meta.attr.1.stream.creation_time.markup">2018-08-27T17:38:30.000000Z</property>
  <property name="meta.attr.1.stream.handler_name.markup">Core Media Data Handler</property>
  <property name="meta.attr.1.stream.encoder.markup">H.264</property>
  <property name="meta.attr.major_brand.markup">qt  </property>
  <property name="meta.attr.minor_version.markup">0</property>
  <property name="meta.attr.compatible_brands.markup">qt  </property>
  <property name="meta.attr.creation_time.markup">2018-08-27T17:38:30.000000Z</property>
  <property name="meta.attr.com.apple.quicktime.make.markup">Apple</property>
  <property name="meta.attr.com.apple.quicktime.model.markup">Macmini5,2</property>
  <property name="meta.attr.com.apple.quicktime.software.markup">Mac OS X 10.13.6 (17G65)</property>
  <property name="meta.attr.com.apple.quicktime.creationdate.markup">2018-08-27T14:36:45-0300</property>
  <property name="meta.media.sample_aspect_num">1</property>
  <property name="meta.media.sample_aspect_den">1</property>
  <property name="meta.media.frame_rate_num">152400000</property>
  <property name="meta.media.frame_rate_den">2826691</property>
  <property name="meta.media.colorspace">709</property>
  <property name="meta.media.color_trc">1</property>
  <property name="meta.media.width">404</property>
  <property name="meta.media.height">720</property>
  <property name="meta.media.top_field_first">0</property>
  <property name="meta.media.progressive">1</property>
 </producer>
 <playlist id="playlist4">
  <property name="kdenlive:track_name">Video 2</property>
  <entry out="662" producer="10_playlist4" in="0">
   <filter id="boxblur" out="825" in="650">
    <property name="start">100</property>
    <property name="hori">1</property>
    <property name="vert">1</property>
    <property name="mlt_service">boxblur</property>
    <property name="kdenlive_id">boxblur</property>
    <property name="tag">boxblur</property>
    <property name="kdenlive_ix">1</property>
    <property name="kdenlive_info">0/-1/</property>
    <property name="disable">0</property>
    <property name="end">67</property>
   </filter>
   <filter id="filter0" out="825" in="650">
    <property name="start">100</property>
    <property name="hori">1</property>
    <property name="vert">1</property>
    <property name="mlt_service">boxblur</property>
    <property name="kdenlive_id">boxblur</property>
    <property name="tag">boxblur</property>
    <property name="kdenlive_ix">2</property>
    <property name="kdenlive_info"/>
    <property name="disable">0</property>
    <property name="end">100</property>
   </filter>
  </entry>
  <entry out="964" producer="10_playlist4" in="823">
   <filter id="filter1" out="825" in="650">
    <property name="start">100</property>
    <property name="hori">1</property>
    <property name="vert">1</property>
    <property name="mlt_service">boxblur</property>
    <property name="kdenlive_id">boxblur</property>
    <property name="tag">boxblur</property>
    <property name="kdenlive_ix">1</property>
    <property name="kdenlive_info">0/-1/</property>
    <property name="disable">0</property>
    <property name="end">67</property>
   </filter>
   <filter id="filter2" out="825" in="650">
    <property name="start">100</property>
    <property name="hori">1</property>
    <property name="vert">1</property>
    <property name="mlt_service">boxblur</property>
    <property name="kdenlive_id">boxblur</property>
    <property name="tag">boxblur</property>
    <property name="kdenlive_ix">2</property>
    <property name="kdenlive_info"/>
    <property name="disable">0</property>
    <property name="end">100</property>
   </filter>
  </entry>
  <entry out="1177" producer="10_playlist4" in="1031">
   <filter id="filter3" out="825" in="650">
    <property name="start">100</property>
    <property name="hori">1</property>
    <property name="vert">1</property>
    <property name="mlt_service">boxblur</property>
    <property name="kdenlive_id">boxblur</property>
    <property name="tag">boxblur</property>
    <property name="kdenlive_ix">1</property>
    <property name="kdenlive_info">0/-1/</property>
    <property name="disable">0</property>
    <property name="end">67</property>
   </filter>
   <filter id="filter4" out="825" in="650">
    <property name="start">100</property>
    <property name="hori">1</property>
    <property name="vert">1</property>
    <property name="mlt_service">boxblur</property>
    <property name="kdenlive_id">boxblur</property>
    <property name="tag">boxblur</property>
    <property name="kdenlive_ix">2</property>
    <property name="kdenlive_info"/>
    <property name="disable">0</property>
    <property name="end">100</property>
   </filter>
  </entry>
 </playlist>
 <playlist id="playlist5">
  <property name="kdenlive:track_name">Video 3</property>
  <blank length="46"/>
  <entry out="10" producer="3" in="5">
   <filter id="qtblend">
    <property name="rotate_center">1</property>
    <property name="mlt_service">qtblend</property>
    <property name="kdenlive_id">qtblend</property>
    <property name="tag">qtblend</property>
    <property name="kdenlive_ix">1</property>
    <property name="kdenlive_info"/>
    <property name="disable"/>
    <property name="rect">5=1048 -23 327 184 1</property>
    <property name="rotation">5=0</property>
    <property name="compositing">0</property>
    <property name="distort">0</property>
   </filter>
  </entry>
  <blank length="52"/>
  <entry out="10" producer="3" in="5">
   <filter id="filter5">
    <property name="rotate_center">1</property>
    <property name="mlt_service">qtblend</property>
    <property name="kdenlive_id">qtblend</property>
    <property name="tag">qtblend</property>
    <property name="kdenlive_ix">1</property>
    <property name="kdenlive_info"/>
    <property name="disable"/>
    <property name="rect">5=884 144 327 184 1</property>
    <property name="rotation">5=0</property>
    <property name="compositing">0</property>
    <property name="distort">0</property>
   </filter>
  </entry>
  <blank length="24"/>
  <entry out="5" producer="3" in="0">
   <filter id="filter6">
    <property name="rotate_center">1</property>
    <property name="mlt_service">qtblend</property>
    <property name="kdenlive_id">qtblend</property>
    <property name="tag">qtblend</property>
    <property name="kdenlive_ix">1</property>
    <property name="kdenlive_info"/>
    <property name="disable"/>
    <property name="rect">0=801 717 327 184 1</property>
    <property name="rotation">0=0</property>
    <property name="compositing">0</property>
    <property name="distort">0</property>
   </filter>
  </entry>
  <blank length="111"/>
  <entry out="5" producer="3" in="0">
   <filter id="filter7">
    <property name="rotate_center">1</property>
    <property name="mlt_service">qtblend</property>
    <property name="kdenlive_id">qtblend</property>
    <property name="tag">qtblend</property>
    <property name="kdenlive_ix">1</property>
    <property name="kdenlive_info"/>
    <property name="disable"/>
    <property name="rect">0=846 104 327 184 1</property>
    <property name="rotation">0=0</property>
    <property name="compositing">0</property>
    <property name="distort">0</property>
   </filter>
  </entry>
  <blank length="429"/>
  <entry out="5" producer="3" in="0">
   <filter id="filter9">
    <property name="rotate_center">1</property>
    <property name="mlt_service">qtblend</property>
    <property name="kdenlive_id">qtblend</property>
    <property name="tag">qtblend</property>
    <property name="kdenlive_ix">1</property>
    <property name="kdenlive_info"/>
    <property name="disable"/>
    <property name="rect">0=801 892 327 184 1</property>
    <property name="rotation">0=0</property>
    <property name="compositing">0</property>
    <property name="distort">0</property>
   </filter>
  </entry>
  <blank length="160"/>
  <entry out="5" producer="3" in="0">
   <filter id="filter10">
    <property name="rotate_center">1</property>
    <property name="mlt_service">qtblend</property>
    <property name="kdenlive_id">qtblend</property>
    <property name="tag">qtblend</property>
    <property name="kdenlive_ix">1</property>
    <property name="kdenlive_info"/>
    <property name="disable"/>
    <property name="rect">0=540 -17 327 184 1</property>
    <property name="rotation">0=0</property>
    <property name="compositing">0</property>
    <property name="distort">0</property>
   </filter>
  </entry>
  <blank length="447"/>
  <entry out="5" producer="3" in="0">
   <filter id="filter11">
    <property name="rotate_center">1</property>
    <property name="mlt_service">qtblend</property>
    <property name="kdenlive_id">qtblend</property>
    <property name="tag">qtblend</property>
    <property name="kdenlive_ix">1</property>
    <property name="kdenlive_info"/>
    <property name="disable"/>
    <property name="rect">0=787 53 327 184 1</property>
    <property name="rotation">0=0</property>
    <property name="compositing">0</property>
    <property name="distort">0</property>
   </filter>
  </entry>
  <blank length="359"/>
  <entry out="5" producer="3" in="0">
   <filter id="filter12">
    <property name="rotate_center">1</property>
    <property name="mlt_service">qtblend</property>
    <property name="kdenlive_id">qtblend</property>
    <property name="tag">qtblend</property>
    <property name="kdenlive_ix">1</property>
    <property name="kdenlive_info"/>
    <property name="disable"/>
    <property name="rect">0=548 77 327 184 1</property>
    <property name="rotation">0=0</property>
    <property name="compositing">0</property>
    <property name="distort">0</property>
   </filter>
  </entry>
 </playlist>
 <tractor id="maintractor" title="Anonymous Submission" global_feed="1" out="1676" in="0">
  <track producer="black_track"/>
  <track producer="playlist1" hide="video"/>
  <track producer="playlist2" hide="video"/>
  <track producer="playlist3"/>
  <track producer="playlist4" hide="audio"/>
  <track producer="playlist5"/>
  <transition id="transition0">
   <property name="a_track">0</property>
   <property name="b_track">1</property>
   <property name="mlt_service">mix</property>
   <property name="always_active">1</property>
   <property name="sum">1</property>
   <property name="internal_added">237</property>
  </transition>
  <transition id="transition1">
   <property name="a_track">0</property>
   <property name="b_track">2</property>
   <property name="mlt_service">mix</property>
   <property name="always_active">1</property>
   <property name="sum">1</property>
   <property name="internal_added">237</property>
  </transition>
  <transition id="transition2">
   <property name="a_track">0</property>
   <property name="b_track">3</property>
   <property name="mlt_service">mix</property>
   <property name="always_active">1</property>
   <property name="sum">1</property>
   <property name="internal_added">237</property>
  </transition>
  <transition id="transition4">
   <property name="a_track">0</property>
   <property name="b_track">4</property>
   <property name="mlt_service">mix</property>
   <property name="always_active">1</property>
   <property name="sum">1</property>
   <property name="internal_added">237</property>
  </transition>
  <transition id="transition6">
   <property name="a_track">0</property>
   <property name="b_track">5</property>
   <property name="mlt_service">mix</property>
   <property name="always_active">1</property>
   <property name="sum">1</property>
   <property name="internal_added">237</property>
  </transition>
  <transition id="transition3">
   <property name="a_track">0</property>
   <property name="b_track">3</property>
   <property name="compositing">0</property>
   <property name="distort">0</property>
   <property name="rotate_center">0</property>
   <property name="mlt_service">qtblend</property>
   <property name="internal_added">237</property>
   <property name="disable">0</property>
  </transition>
  <transition id="transition5">
   <property name="a_track">0</property>
   <property name="b_track">4</property>
   <property name="compositing">0</property>
   <property name="distort">0</property>
   <property name="rotate_center">0</property>
   <property name="mlt_service">qtblend</property>
   <property name="internal_added">237</property>
   <property name="disable">0</property>
  </transition>
  <transition id="transition7">
   <property name="a_track">0</property>
   <property name="b_track">5</property>
   <property name="compositing">0</property>
   <property name="distort">0</property>
   <property name="rotate_center">0</property>
   <property name="mlt_service">qtblend</property>
   <property name="internal_added">237</property>
   <property name="disable">0</property>
  </transition>
 </tractor>
</mlt>
